# xmcd
#
# Track frame offsets: 
#        182
#        13707
#        26682
#        41102
#        62347
#        73132
#        89710
#        95247
#        103637
#        117287
#        135727
#        148485
#        153052
#        199607
#        215690
#        232232
#        250855
#
# Disc length: 3531 seconds
#
# Revision: 2
# Processed by: cddbd v1.5.2PL0 Copyright (c) Steve Scherf et al.
# Submitted via: ExactAudioCopy v1.0b6
#
DISCID=030dc911
DTITLE=Peggy Lee - Fever - In Concert at The London Palladium 1977
DYEAR=1977
DGENRE=Vocal
TTITLE0=Love For Sale
TTITLE1=Misty
TTITLE2=Make Believe
TTITLE3=I'm Not In Love
TTITLE4=Have a Good Time
TTITLE5=Mr Wonderful
TTITLE6=Why Don't You Do Right
TTITLE7=Sing A Rainbow
TTITLE8=You Gotta Know How
TTITLE9=Everything Must Change
TTITLE10=Fever
TTITLE11=I Don't Want To Play In Your Yard
TTITLE12=Rodgers and Heart Medley
TTITLE13=Mack The Knife
TTITLE14=The Folks Who Live On The Hill
TTITLE15=Lover
TTITLE16=Here's To You
EXTD=
EXTT0=
EXTT1=
EXTT2=
EXTT3=
EXTT4=
EXTT5=
EXTT6=
EXTT7=
EXTT8=
EXTT9=
EXTT10=
EXTT11=
EXTT12=
EXTT13=
EXTT14=
EXTT15=
EXTT16=
PLAYORDER=
